<?xml version="1.0" encoding="UTF-8"?><svg id="_レイヤー_1" xmlns="http://www.w3.org/2000/svg" viewBox="0 0 1024 1024"><path d="M1024,762.37c.4,143.54-105.58,252.85-248.29,252.87l-524.07.09C102.17,1015.35-.28,908.23,0,760.35L.96,246.47C1.2,116.41,102.99,9.86,233.91,9.63l531.75-.95c31.71-.06,61.42,1.53,91.41,10.74,97.89,30.06,165.17,119.42,165.46,223.43l1.46,519.53ZM785.66,967.89c109.78-.18,190.89-90.17,190.68-196.69l-1.05-531c-.21-105.8-87.86-185.27-190.71-185.25l-544.97.12c-106.78.02-191.92,83.74-191.96,191.77l-.16,527.43c-.03,109.78,88.51,194.67,196.92,194.5l541.24-.88Z"/><path d="M780.36,831.96l-339.44.3c-20.41.02-37.06-7.98-54.06-18.46-12.97,6.53-30.44,18.26-45.7,18.18l-100.45-.52c-43.06-.22-72.41-36.71-72.46-77.61l-.09-86.28c-.02-21,8.85-39.47,19.55-57.13-8.95-14.99-19.62-34.39-19.59-53l.17-93.67c.04-19.44,9.52-37.51,20.51-52.31-11.51-15.6-20.55-34.25-20.5-54.39l.23-93.12c.11-44.26,36.49-74.2,78.84-74.04l89.72.34c18.03.07,35.35,9.1,50.36,19.48,15.05-10.73,31.84-19.46,51.29-19.45l344.32.18c40.13.02,71.31,34.36,71.3,73.18l-.03,99.8c0,17.05-9.75,34.12-19.55,48.19,11.11,16.21,19.95,35.14,19.96,55.78l.03,93.57c0,17.89-10.52,35.73-18.75,50.44,8.2,15.47,19.05,33.73,18.87,52.46l-.93,96.67c-.38,39.85-33.32,71.38-73.6,71.42ZM388.11,604.75c15.84-10.8,31.61-18.15,48.9-18.18l146.8-.22c17.76-.03,30.58-13.39,30.59-30.67l.06-90.95c.01-17.31-13.78-29.31-30.44-29.36l-147.48-.45c-37.1-.11-72.52-33.68-72.93-70.8l-1.06-96.88c-.18-16.82-12.57-30.6-29.7-30.59l-88.08.06c-17.21.01-29.96,13.52-29.95,30.46l.04,89.73c0,16.91,13.08,30.94,29.8,31.04l78.46.43c14.12.08,23.9,10.56,23.81,23.6-.08,11.53-10.59,22.51-24.01,22.5l-75.57-.02c-16.63,0-32.22,11.55-32.31,29.77l-.46,89.25c-.1,19.83,13.15,33.26,33.1,33.21l93.01-.25c16.55-.04,32.81,9.24,47.45,18.32ZM778.43,388.23c18.55,0,26.73-13.83,29.81-28.38l-.02-92.45c0-15.84-12.62-30.76-29.37-30.76h-337.32c-16.05,0-31.35,11.7-31.3,28.6l.27,96.07c.04,14.17,12.92,26.86,27.53,26.86l340.4.05ZM808.29,752.01l-.12-87.78c-.02-15.61-12.29-30.76-28.27-30.81l-78.26-.26c-15.24-.05-25.4-9.95-25.4-24.29,0-9.74,9.57-22.2,22.14-22.24l78.71-.23c16.3-.05,31.38-11.97,31.34-29.57l-.24-92.54c-.05-17.87-14.91-29.2-31.19-29.16l-86.6.22c-15.4.04-29.39,12.37-29.52,28.78l-.77,93.41c-.31,37.29-29.59,74.77-68.97,75.03l-152.69,1.02c-14.78.1-28.31,14.32-28.29,28.93l.12,95.68c.02,13.55,12.68,27.13,27.15,27.13l339.22.07c18.25,0,31.64-14.53,31.62-33.41ZM335.6,785.24c15.73-.04,27.11-14.3,27.14-27.83l.24-93.35c.04-17.41-12.72-30.87-30.2-30.81l-87.36.29c-17.17.06-30.49,13.08-30.49,30.56v89.66c-.01,18.37,14.48,31.78,32.55,31.72l88.12-.25Z"/><path d="M290.54,557.71l-32.43-33.21c-6.98-7.15-9.11-18.68-3.8-27.06s20.78-11.99,28.79-4.65l22.6,20.7,52.32-53.91c7.91-8.15,22.95-6.75,30,1.42,7.03,8.14,5.71,20.81-2.71,29.59l-64.87,67.65c-8.27,8.62-22.42,7.14-29.91-.53Z"/></svg>