<?xml version="1.0" encoding="UTF-8"?><svg id="_レイヤー_1" xmlns="http://www.w3.org/2000/svg" viewBox="0 0 1024 1024"><path d="M1024,772.3c.28,145.94-114.9,243.99-254.81,243.88l-517.88-.39C109.5,1015.68-.17,910.06,0,766.55L.63,246.09C.79,111.24,106.53,7.8,240.25,7.82l547.04.09c128.04.02,235.43,100.52,235.68,230.87l1.03,533.52ZM977.55,772.95l.55-512.94c.03-26.68-4.06-50.63-12.25-75.53-24.6-74.79-92.76-130.12-174.54-130.16l-551.66-.22c-109.16-.04-192.42,86.24-192.48,195.24l-.27,517.65c-.06,115.98,89.74,202.72,203.98,202.6l529.04-.55c109.14-.11,197.53-84.19,197.65-196.09Z"/><path d="M443.13,783.16c-31.12,35.68-84.4,35.5-115.94,6.61-33.1-30.33-36.54-81.07-5.94-116.14l90.12-103.32c29.63-33.97,29-86.1-.63-120.01l-88.23-100.96c-30.85-35.3-29.7-83.38,3.76-116.18,28.71-28.14,83.14-32.67,113.78,2.29l160.01,182.56c47.45,54.14,43.87,134.9-2.49,188.06l-154.44,177.1ZM408.87,752.03l157.03-180.52c29.86-34.33,29.29-88.08-.41-122.34l-155.99-179.89c-14.39-16.6-37.59-16.04-51.27-3.4-14.14,13.07-16.29,34.95-2.99,50.37l92.64,107.32c45.18,52.35,40.39,128.48-4.3,179.79l-88.13,101.18c-13.48,15.47-11.49,37.49,2.6,50.31,13.34,12.14,35.87,14.38,50.82-2.82Z"/><path d="M876.71,510.7c0,55.33-44.87,100.18-100.21,100.18s-100.21-44.85-100.21-100.18,44.87-100.18,100.21-100.18,100.21,44.85,100.21,100.18ZM830.71,510.92c0-29.74-24.11-53.84-53.86-53.84s-53.86,24.11-53.86,53.84,24.11,53.84,53.86,53.84,53.86-24.11,53.86-53.84Z"/><path d="M256.29,646.77c-8.83,10.21-22.78,10.89-31.38,5.15-10.48-7-14.27-23.49-5.44-33.6l46.43-53.13c28.18-32.25,24.9-79.65-2.17-111.16l-46.22-53.79c-7.21-8.39-1.06-26.28,7.36-31.58,8.32-5.24,21.96-4.31,29.79,4.66l47.02,53.86c41.15,47.14,39.92,121.02-.87,168.15l-44.52,51.45Z"/></svg>